Coordinates
version=1
nRows=21
nColumns=19
inDegrees=yes

Units are S.I. units (second, meters, Newtons, ...)
If the header above contains a line with 'inDegrees', this indicates whether rotational values are in degrees (yes) or radians (no).

endheader
time	subtalar_angle_l	subtalar_angle_r	pelvis_list	pelvis_rotation	pelvis_tilt	pelvis_tx	pelvis_ty	pelvis_tz	hip_flexion_l	hip_adduction_l	hip_rotation_l	hip_flexion_r	hip_adduction_r	hip_rotation_r	knee_flexion_l	knee_flexion_r	ankle_angle_l	ankle_angle_r
      4.01000000	      1.42107083	      8.94468036	     83.00123285	     -6.77515668	      3.15460595	      0.09359958	     -0.66279464	      0.64940710	     28.13704404	      7.32837135	    -12.14716819	    -21.08232413	      3.21310182	     28.14578331	    -33.22661029	      2.40398225	    -12.37978691	    -24.54778007
      4.02000000	      0.56563282	      9.23434777	     82.82868108	     -7.24698974	      3.32093070	      0.10484418	     -0.66247733	      0.64757798	     27.10380283	      7.53134944	    -12.91452353	    -21.86212048	      3.12803668	     28.37565847	    -31.47452809	      1.79939164	    -12.67814990	    -25.23131447
      4.03000000	      0.41781947	      9.34345891	     82.73928434	     -7.63168916	      3.53915753	      0.11634191	     -0.66213633	      0.64573412	     25.92153824	      7.63475737	    -13.54079229	    -22.56844264	      3.01937228	     28.52153612	    -30.02514149	      0.97673669	    -12.63897086	    -25.56620045
      4.04000000	      0.16656049	      9.52731619	     82.77835310	     -7.92990031	      3.69532777	      0.12802607	     -0.66173155	      0.64397289	     24.71848473	      7.58146201	    -14.05091676	    -23.05458562	      2.85370329	     28.52932485	    -28.86177550	     -0.07470058	    -12.52182889	    -26.26978127
      4.05000000	     -0.03316261	      9.70606060	     82.96139763	     -8.12304141	      3.73355178	      0.13981582	     -0.66125315	      0.64235268	     23.59156798	      7.35373518	    -14.43749666	    -23.23434091	      2.63762916	     28.38895594	    -27.97625697	     -1.38310232	    -12.32941298	    -27.14381904
      4.06000000	     -0.16171538	      9.99277064	     83.29487699	     -8.22824997	      3.64681788	      0.15163748	     -0.66067609	      0.64093715	     22.57981054	      6.97034086	    -14.63659547	    -23.10395576	      2.36161467	     28.22436464	    -27.34338423	     -2.91256795	    -12.03586160	    -28.36625536
      4.07000000	     -0.06173262	     10.01987253	     83.79502539	     -8.14907913	      3.55802593	      0.16340279	     -0.66002958	      0.63971539	     21.57779327	      6.36985570	    -14.80833350	    -22.74922694	      2.05394320	     27.71898951	    -26.91133311	     -4.75100827	    -11.80111828	    -29.24665074
      4.08000000	      0.16094606	     10.06840780	     84.44873326	     -7.94697033	      3.37157252	      0.17504824	     -0.65928361	      0.63877370	     20.68197635	      5.61790881	    -14.84900780	    -22.08766135	      1.69965506	     27.07839981	    -26.59208809	     -6.83683026	    -11.52434801	    -30.37795349
      4.09000000	      0.76009911	     10.41022793	     85.24721273	     -7.63202668	      3.10251010	      0.18651974	     -0.65842758	      0.63816153	     19.86034750	      4.72963526	    -14.79231443	    -21.17333398	      1.29075536	     26.42808942	    -26.29386292	     -9.08457162	    -11.11736450	    -32.14390879
      4.10000000	      1.14653648	     10.27128371	     86.17722848	     -7.15668419	      2.84242076	      0.19771129	     -0.65747729	      0.63781287	     19.03252473	      3.70356814	    -14.73566098	    -20.01213044	      0.84473276	     25.37669352	    -25.97433758	    -11.67319379	    -10.97796558	    -32.95553230
      4.11000000	      2.06637267	     10.59691557	     87.19036458	     -6.58928833	      2.42079618	      0.20861071	     -0.65640207	      0.63785350	     18.31569032	      2.59752598	    -14.69797137	    -18.53214853	      0.36340778	     24.32393446	    -25.50762701	    -14.37605252	    -10.76466579	    -34.64471552
      4.12000000	      2.54926252	     10.43778955	     88.26750058	     -5.91712229	      2.14971894	      0.21916573	     -0.65523731	      0.63813015	     17.43972550	      1.45640453	    -14.59342074	    -17.00655256	     -0.16965982	     22.99456364	    -24.95044309	    -17.30033297	    -10.71049881	    -35.29408921
      4.13000000	      3.64971261	     10.85374357	     89.34145990	     -5.20700413	      1.67159311	      0.22935404	     -0.65394365	      0.63879958	     16.69136077	      0.31529271	    -14.55701151	    -15.13736827	     -0.71042248	     21.72411584	    -24.16683595	    -20.26631933	    -10.71134251	    -36.61369360
      4.14000000	      4.05330915	     10.63671127	     90.40014732	     -4.42258372	      1.43176914	      0.23918941	     -0.65257147	      0.63967621	     15.65109753	     -0.80516665	    -14.55565705	    -13.39757291	     -1.28641989	     20.32930156	    -23.24319605	    -23.27684828	    -10.71536919	    -36.90702177
      4.15000000	      4.58384284	     10.55007323	     91.37140907	     -3.61683236	      1.07988624	      0.24863778	     -0.65109607	      0.64084758	     14.65929733	     -1.86466824	    -14.69227210	    -11.44632526	     -1.82437197	     19.01273818	    -22.15902218	    -26.24777111	    -10.81129153	    -37.22859546
      4.16000000	      5.09034714	     10.48140279	     92.20103839	     -2.82373835	      0.77398534	      0.25774538	     -0.64956355	      0.64226134	     13.56041844	     -2.77599427	    -14.84794240	     -9.46546383	     -2.29572742	     17.74712113	    -20.92808821	    -29.12344316	    -10.94445472	    -37.35858769
      4.17000000	      5.52626456	     10.39913524	     92.88178657	     -2.04657507	      0.51876350	      0.26651983	     -0.64798329	      0.64386828	     12.37228324	     -3.54975884	    -15.06220566	     -7.47328302	     -2.69263782	     16.54622956	    -19.60877805	    -31.86054830	    -11.09862260	    -37.22797598
      4.18000000	      5.86907211	     10.28123523	     93.39103234	     -1.29088241	      0.31743339	      0.27497387	     -0.64637441	      0.64561554	     11.11830591	     -4.16724792	    -15.34644116	     -5.47552220	     -2.98987506	     15.40472686	    -18.25952443	    -34.43851940	    -11.27376719	    -36.78922205
      4.19000000	      6.04669025	     10.22454704	     93.73413116	     -0.60084488	      0.17788048	      0.28316108	     -0.64476627	      0.64746786	      9.80469192	     -4.60630872	    -15.57470326	     -3.48279050	     -3.19141413	     14.34748446	    -16.88572483	    -36.82820143	    -11.64542122	    -35.46787664
      4.20000000	      6.13851782	      9.97920671	     93.89467512	      0.12144966	      0.10988949	      0.29108110	     -0.64318933	      0.64936112	      8.45247823	     -4.88834861	    -15.98122875	     -1.53178977	     -3.28839081	     13.20165624	    -15.58292851	    -38.99725901	    -11.69899923	    -34.85320434
      4.21000000	      5.91223112	      9.62972066	     93.92919184	      0.72012786	      0.10534784	      0.29876074	     -0.64163977	      0.65124462	      7.07621285	     -5.01865296	    -16.28327649	      0.41982478	     -3.29201796	     12.25165473	    -14.31920530	    -40.98744493	    -11.96354864	    -33.13273952
